<?xml version="1.0" encoding="UTF-8"?>
<svg id="Layer_2" data-name="Layer 2" xmlns="http://www.w3.org/2000/svg" viewBox="0 0 441.59 73.02">
  <defs>
    <style>
      .cls-1 {
        fill: #fff;
      }

      .cls-2 {
        fill: none;
      }

      .cls-3 {
        fill: #6b50a1;
      }
    </style>
  </defs>
  <g id="Layer_1-2" data-name="Layer 1">
    <g>
      <path class="cls-3" d="M300.93,47.46c0-7.38,2.62-13.86,7.86-19.44,5.24-5.58,11.34-8.37,18.3-8.37,4.24,0,7.64,1.19,10.2,3.57,2.55,2.38,3.83,5.56,3.83,9.54,0,6.14-2.25,11.99-6.75,17.54-5.23,6.47-11.74,9.7-19.55,9.7-4.1,0-7.44-1.16-10.02-3.48s-3.87-5.34-3.87-9.07ZM312.18,45.38c0,3.49.49,6.11,1.48,7.86.98,1.75,2.46,2.62,4.43,2.62,3.14,0,5.95-2.26,8.44-6.79,2.48-4.52,3.73-9.63,3.73-15.33,0-3.42-.48-5.99-1.44-7.7-.96-1.71-2.4-2.57-4.32-2.57-3.12,0-5.95,2.27-8.49,6.8s-3.81,9.57-3.81,15.1Z"/>
      <path class="cls-1" d="M27.04,32.13c4.85.96,8.48,2.61,10.9,4.96,2.41,2.34,3.62,5.37,3.62,9.07,0,4.31-1.43,7.55-4.29,9.72-2.86,2.17-7.16,3.25-12.9,3.25H0v-3.27l.67-.04c2.37-.16,3.78-.56,4.25-1.21.47-.64.7-2.52.7-5.65v-31.71c0-3.12-.23-5-.69-5.63-.46-.63-1.88-1.04-4.27-1.22l-.67-.04v-3.27h24.26c5.04,0,8.82.96,11.34,2.88,2.52,1.92,3.78,4.82,3.78,8.68,0,3-1.03,5.62-3.08,7.88-2.05,2.25-5.14,4.11-9.26,5.59ZM16.03,30.76h2.14c3.49,0,6.1-.87,7.84-2.62,1.73-1.75,2.6-4.37,2.6-7.87,0-3.24-.87-5.67-2.6-7.29-1.73-1.62-4.34-2.43-7.8-2.43h-2.18v20.21ZM16.03,34.2v14.77c0,2.65.32,4.35.95,5.12.63.76,2.04,1.14,4.22,1.14,2.79,0,5.03-.89,6.71-2.67,1.69-1.78,2.53-4.14,2.53-7.07,0-3.38-1.13-6.1-3.39-8.17-2.26-2.07-5.21-3.11-8.84-3.11h-2.18Z"/>
      <path class="cls-1" d="M81.49,57.62c-4.59,1.59-9.07,2.39-13.43,2.39-6.59,0-11.79-1.85-15.63-5.55-3.83-3.7-5.75-8.73-5.75-15.08,0-5.86,1.73-10.61,5.19-14.26,3.46-3.64,7.96-5.47,13.52-5.47,10.73,0,16.1,6.59,16.1,19.76v.77h-24.12c0,4.88,1.14,8.53,3.41,10.97,2.27,2.44,5.68,3.66,10.23,3.66,3.09,0,6.59-.84,10.48-2.53v5.34ZM57.62,36.91h13.64v-1.23c0-4.66-.47-7.96-1.41-9.88-.94-1.92-2.56-2.88-4.86-2.88-2.44,0-4.28,1.17-5.52,3.5-1.23,2.33-1.85,5.83-1.85,10.49Z"/>
      <path class="cls-1" d="M109.93,54.67c-1.85,1.78-3.74,3.12-5.68,4.01s-3.91,1.34-5.92,1.34c-3.42,0-6.26-1.06-8.51-3.18-2.25-2.12-3.38-4.8-3.38-8.03,0-3.77,1.43-6.79,4.29-9.04,1.71-1.36,3.74-2.3,6.08-2.83,2.34-.53,5.65-.79,9.91-.79h1.76v-4.68c0-3.3-.42-5.55-1.25-6.75-.83-1.2-2.37-1.79-4.62-1.79-2.74,0-4.8.74-6.19,2.21-.47.47-.77,2.04-.91,4.71l-.04.67h-5.66v-7.8c4.45-2.04,9.11-3.06,13.96-3.06s8.61,1.01,11.21,3.02c2.6,2.02,3.9,4.91,3.9,8.68v16.95c0,3,.22,5.04.67,6.12.42,1.1,1.23,1.65,2.43,1.65.35,0,.76-.07,1.23-.21l.46,3.27c-1.81.59-3.57.88-5.31.88-1.9,0-3.55-.45-4.96-1.34s-2.57-2.23-3.48-4.01ZM108.49,52.1v-12.8h-1.37c-3.47,0-6.08.7-7.82,2.09-1.75,1.39-2.62,3.49-2.62,6.28,0,2.06.56,3.71,1.67,4.94,1.11,1.23,2.61,1.85,4.48,1.85,1.05,0,2.05-.2,2.99-.6.94-.4,1.83-.98,2.67-1.76Z"/>
      <path class="cls-1" d="M160.38,58.22c-4.01,1.2-7.85,1.79-11.53,1.79-6.73,0-12.02-1.83-15.87-5.5-3.86-3.67-5.78-8.71-5.78-15.13s1.83-10.96,5.48-14.47c3.66-3.5,8.7-5.26,15.12-5.26,4.05,0,8.2.59,12.45,1.76v9.95h-4.99l-.04-.63c-.19-2.93-.54-4.71-1.05-5.34-1.31-1.64-3.34-2.46-6.08-2.46-3.28,0-5.74,1.34-7.38,4.01-1.64,2.67-2.46,6.68-2.46,12.02s1.1,9.56,3.29,12.3c2.19,2.74,5.47,4.11,9.83,4.11,2.69,0,5.71-.66,9.04-1.97v4.82Z"/>
      <path class="cls-1" d="M186.19,60.01c-6.23,0-11.14-1.8-14.71-5.4-3.57-3.6-5.36-8.53-5.36-14.78s1.79-11.19,5.36-14.78c3.57-3.6,8.48-5.4,14.71-5.4s11.1,1.8,14.68,5.4c3.57,3.6,5.36,8.53,5.36,14.78s-1.79,11.19-5.36,14.78c-3.57,3.6-8.47,5.4-14.68,5.4ZM186.19,56.32c2.86,0,5-1.38,6.42-4.13,1.42-2.75,2.13-6.87,2.13-12.36s-.71-9.63-2.13-12.38c-1.42-2.74-3.56-4.11-6.42-4.11s-5,1.37-6.43,4.11c-1.43,2.74-2.14,6.87-2.14,12.38s.71,9.6,2.14,12.36c1.43,2.75,3.57,4.13,6.43,4.13Z"/>
      <g>
        <path class="cls-2" d="M284.79,27.38c-3.06,0-8.35,5.4-15.86,16.21l-2.17,10.19c2.16,1.67,4.56,2.5,7.18,2.5,4.21,0,7.61-3.55,10.21-10.65,2.19-5.95,3.28-10.86,3.28-14.73,0-1.17-.22-2.05-.65-2.64-.43-.59-1.1-.88-1.99-.88Z"/>
        <path class="cls-1" d="M256.44,55.86l-.67-.04c-2.37-.16-3.79-.57-4.27-1.21-.48-.64-.72-2.54-.72-5.68v-17.12c0-3.82-.97-6.81-2.92-8.96-1.97-2.13-4.69-3.2-8.16-3.2-2.81,0-5.32.68-7.52,2.04-2.2,1.36-4.1,3.4-5.7,6.12v-7.28h-16.03v3.27l.67.04c2.37.16,3.78.57,4.25,1.21.47.65.7,2.54.7,5.68v18.21c0,3.14-.23,5.03-.7,5.68-.47.65-1.89,1.05-4.25,1.21l-.67.04v3.27h21.66v-3.27l-.66-.04c-2.35-.16-3.77-.57-4.24-1.21-.48-.64-.72-2.54-.72-5.68v-17.23c1.5-1.92,3.02-3.36,4.55-4.31s3.09-1.42,4.66-1.42c1.83,0,3.06.49,3.71,1.46.64.97.97,2.83.97,5.57v15.93c0,3.14-.23,5.03-.7,5.68-.47.65-1.9,1.05-4.29,1.21l-.63.04v3.27h21.69v-.02s0-3.25,0-3.25Z"/>
        <path class="cls-3" d="M295.7,22.27c-1.49-1.75-3.41-2.62-5.75-2.62-3.32,0-6.82,1.6-10.5,4.8-3.68,3.2-6.74,7.32-9.17,12.36l3.25-16.29h-16.01l-.67,3.27.67.04c2.91.19,4.36.98,4.36,2.39l-.77,4.5-5.66,28.38v.02h0l-2.77,13.89h10.39l2.73-13.68c2.17.35,4.02.53,5.54.53,6.58,0,12.66-3.24,18.24-9.72,5.58-6.48,8.37-13.54,8.37-21.18,0-2.72-.75-4.95-2.24-6.7ZM284.15,45.63c-2.6,7.1-6,10.65-10.21,10.65-2.62,0-5.02-.83-7.18-2.5l2.17-10.19c7.52-10.81,12.8-16.21,15.86-16.21.89,0,1.55.29,1.99.88.43.59.65,1.46.65,2.64,0,3.87-1.09,8.78-3.28,14.73Z"/>
      </g>
      <path class="cls-3" d="M345.09,59.13l5.66-28.41.77-4.54c0-1.38-1.46-2.17-4.39-2.36l-.63-.04.63-3.27h16.05l-5.66,28.4-.56,3.69-.18.84c0,1.38,1.45,2.17,4.36,2.36l.63.04-.63,3.27h-16.05Z"/>
      <path class="cls-3" d="M368.08,59.13l5.66-28.41c.28-1.62.54-3.13.77-4.54,0-1.38-1.46-2.17-4.39-2.36l-.63-.04.63-3.27h16.01l-3.22,16.23c2.75-5.34,5.85-9.53,9.31-12.56,3.46-3.03,6.85-4.55,10.16-4.55,1.81,0,3.34.67,4.61,2.02s1.9,2.98,1.9,4.9c0,1.17-.2,2.79-.6,4.85l-3.49,17.51c-.52,2.91-.77,4.42-.77,4.54,0,1.38,1.46,2.17,4.39,2.36l.63.04-.67,3.27h-16.01l5.42-27.21c.21-1.09.32-2,.32-2.72,0-1.21-.46-1.81-1.37-1.81-2.79,0-7.86,5.45-15.21,16.35l-3.05,15.4h-10.39Z"/>
      <path class="cls-3" d="M440.64,24.01h-8.8l-4.44,22.09c-.49,2.4-.74,4.18-.74,5.36,0,1.36.36,2.38,1.08,3.07.72.68,1.81,1.02,3.27,1.02.98,0,2.16-.33,3.54-.98l-.81,4.04c-2.85.94-5.29,1.41-7.31,1.41-3.42,0-5.97-.69-7.68-2.06s-2.56-3.42-2.56-6.13c0-1.17.18-2.6.53-4.29l4.76-23.52h-5.66l1.02-3.48h5.27l1.34-6.57,10.76-1.86-1.67,8.44h9.05l-.95,3.48Z"/>
      <path class="cls-3" d="M363.18,14.04c2-4.16,3.6-8.36,1.79-14.04-4.24,4.18-8.78,8.29-14.89,8.45-2.28,1.64-1.96,3.84-.93,5.6,6.67-2.76,11.08-2.4,14.03,0Z"/>
    </g>
  </g>
</svg>